<svg width="14" height="15" viewBox="0 0 14 15" fill="none" xmlns="http://www.w3.org/2000/svg">
<path d="M2.91667 13.3334H7.46667C7.29167 12.9834 7.11667 12.5751 7.05833 12.1667H2.91667V2.83341H7V5.75008H9.91667V8.14175C10.0917 8.08341 10.325 8.08341 10.5 8.08341C10.675 8.08341 10.9083 8.08341 11.0833 8.14175V5.16675L7.58333 1.66675H2.91667C2.275 1.66675 1.75 2.19175 1.75 2.83341V12.1667C1.75 12.8084 2.275 13.3334 2.91667 13.3334Z" fill="#00A8FF"/>
<path d="M8.75 7.50008H4.08333V8.66675H8.575C8.60417 8.63758 8.63333 8.623 8.6625 8.60841C8.69167 8.59383 8.72083 8.57925 8.75 8.55008V7.50008Z" fill="#00A8FF"/>
<path d="M7 9.83341H4.08333V11.0001H7V9.83341Z" fill="#00A8FF"/>
<path d="M10.5 9.25008L8.75 11.0001H9.91667V13.3334H11.0833V11.0001H12.25L10.5 9.25008Z" fill="#00A8FF"/>
</svg>