<svg height="1024" version="1.1" viewBox="0 0 1024 1024" width="1024" xmlns="http://www.w3.org/2000/svg">
	<title></title>
	<g id="icomoon-ignore">
	</g>
	<path
		d="M768 686.080c-32.427 0-61.44 12.8-83.627 32.853l-304.213-177.067c2.133-9.813 3.84-19.627 3.84-29.867s-1.707-20.053-3.84-29.867l300.8-175.36c23.040 21.333 53.333 34.56 87.040 34.56 70.827 0 128-57.173 128-128s-57.173-128-128-128c-70.827 0-128 57.173-128 128 0 10.24 1.707 20.053 3.84 29.867l-300.8 175.36c-23.040-21.333-53.333-34.56-87.040-34.56-70.827 0-128 57.173-128 128s57.173 128 128 128c33.707 0 64-13.227 87.040-34.56l303.787 177.067c-2.133 8.96-3.413 18.347-3.413 28.16 0 68.693 55.893 124.16 124.587 124.16s124.587-55.467 124.587-124.16c0-68.693-55.893-124.587-124.587-124.587zM768 170.667c23.467 0 42.667 19.2 42.667 42.667s-19.2 42.667-42.667 42.667c-23.467 0-42.667-19.2-42.667-42.667s19.2-42.667 42.667-42.667zM256 554.667c-23.467 0-42.667-19.2-42.667-42.667s19.2-42.667 42.667-42.667c23.467 0 42.667 19.2 42.667 42.667s-19.2 42.667-42.667 42.667zM768 853.333c-23.467 0-42.667-19.2-42.667-42.667s19.2-42.667 42.667-42.667c23.467 0 42.667 19.2 42.667 42.667s-19.2 42.667-42.667 42.667z"></path>
</svg>
