<svg height="1024" version="1.1" viewBox="0 0 1024 1024" width="1024" xmlns="http://www.w3.org/2000/svg">
	<title></title>
	<g id="icomoon-ignore">
	</g>
	<path
		d="M341.333 554.667c-79.36 0-145.493 54.613-164.693 128h-91.307v85.333h91.307c19.2 73.387 85.333 128 164.693 128s145.493-54.613 164.693-128h432.64v-85.333h-432.64c-19.2-73.387-85.333-128-164.693-128zM341.333 810.667c-46.933 0-85.333-38.4-85.333-85.333s38.4-85.333 85.333-85.333c46.933 0 85.333 38.4 85.333 85.333s-38.4 85.333-85.333 85.333zM847.36 256c-19.2-73.387-85.333-128-164.693-128s-145.493 54.613-164.693 128h-432.64v85.333h432.64c19.2 73.387 85.333 128 164.693 128s145.493-54.613 164.693-128h91.307v-85.333h-91.307zM682.667 384c-46.933 0-85.333-38.4-85.333-85.333s38.4-85.333 85.333-85.333c46.933 0 85.333 38.4 85.333 85.333s-38.4 85.333-85.333 85.333z"></path>
</svg>
